:FULLY-SPECIFIED
:FORCE-ALL-JOINTS-BE-3DOF
:DEGREES
238
root 5.63416 15.6805 -25.8492 10.2738 22.4746 -6.40835
lfemur -39.1965 34.3852 -3.84682
ltibia 54.4166 0 0
lfoot -13.0143 4.30495 0
ltoes -6.14569 0 0
rfemur -21.5463 -14.201 4.83776
rtibia 42.8415 0 0
rfoot -20.0642 -0.814053 0
rtoes 42.9803 0 0
lowerback 1.59823 -2.02766 1.71584
upperback -0.639974 -2.63487 2.78632
thorax -1.48779 -1.31838 1.97196
lowerneck -11.6384 -2.39983 -0.168168
upperneck 1.14542 -3.17818 0.17699
head 2.38367 -1.57819 -0.0933779
lclavicle 6.31458e-15 -1.4297e-14 0
lhumerus -52.9987 -37.0208 120.905
lradius 61.3093 0 0
lwrist 18.5401 0 0
lhand 9.85056 14.0597 0
lfingers 7.12502 0 0
lthumb 35.04 41.0346 0
rclavicle 6.31458e-15 -1.4297e-14 0
rhumerus -37.3478 -0.476032 -71.9895
rradius 95.4798 0 0
rwrist -13.2616 0 0
rhand 38.9105 -19.7422 0
rfingers 7.12502 0 0
rthumb 60.5788 -759.362 0
239
root 5.73532 15.7142 -25.8391 10.1044 24.1701 -6.29681
lfemur -39.2601 33.8327 -4.76621
ltibia 53.9476 0 0
lfoot -13.2187 3.62821 0
ltoes -2.41919 0 0
rfemur -20.8223 -12.776 4.52298
rtibia 43.857 0 0
rfoot -17.28 -2.05683 0
rtoes 39.517 0 0
lowerback 1.56848 -2.04439 1.55299
upperback -0.671821 -2.65803 2.89302
thorax -1.48892 -1.32802 2.17125
lowerneck -11.5603 -2.76302 -0.307504
upperneck 1.24478 -3.64173 0.15404
head 2.40419 -1.81018 -0.103041
lclavicle 3.56282e-15 -1.32988e-14 0
lhumerus -52.9007 -36.7321 120.928
lradius 61.3731 0 0
lwrist 18.5971 0 0
lhand 9.38238 13.8143 0
lfingers 7.12502 0 0
lthumb 34.5976 40.9067 0
rclavicle 3.56282e-15 -1.32988e-14 0
rhumerus -37.7566 -0.816953 -71.5874
rradius 91.7268 0 0
rwrist -9.03131 0 0
rhand 35.5884 -18.2731 0
rfingers 7.12502 0 0
rthumb 57.5397 -759.62 0
240
root 5.83647 15.748 -25.8289 9.92534 25.9108 -6.14764
lfemur -39.228 33.1641 -5.72177
ltibia 53.3543 0 0
lfoot -13.477 2.87939 0
ltoes 1.62048 0 0
rfemur -20.0974 -11.2955 4.17113
rtibia 44.9516 0 0
rfoot -14.372 -3.31739 0
rtoes 35.915 0 0
lowerback 1.53211 -2.06203 1.37591
upperback -0.704551 -2.68262 2.98266
thorax -1.48723 -1.33831 2.36066
lowerneck -11.4747 -3.13899 -0.440356
upperneck 1.35321 -4.12357 0.135672
head 2.42677 -2.05094 -0.113339
lclavicle 6.75598e-16 -1.21844e-14 0
lhumerus -52.8097 -36.4477 120.939
lradius 61.4261 0 0
lwrist 18.6729 0 0
lhand 8.95259 13.5895 0
lfingers 7.12502 0 0
lthumb 34.1898 40.7765 0
rclavicle 6.75598e-16 -1.21844e-14 0
rhumerus -38.1293 -1.2372 -71.0553
rradius 87.7296 0 0
rwrist -4.61122 0 0
rhand 31.8962 -16.8208 0
rfingers 7.12502 0 0
rthumb 54.1578 -759.605 0
241
root 5.93763 15.7817 -25.8188 9.74276 27.6865 -5.96082
lfemur -39.1108 32.3956 -6.70446
ltibia 52.6572 0 0
lfoot -13.7775 2.06909 0
ltoes 5.90875 0 0
rfemur -19.3865 -9.77849 3.79314
rtibia 46.1136 0 0
rfoot -11.3773 -4.58186 0
rtoes 32.2165 0 0
lowerback 1.49166 -2.08091 1.18717
upperback -0.737155 -2.70912 3.05573
thorax -1.48323 -1.34952 2.53941
lowerneck -11.382 -3.52473 -0.567649
upperneck 1.46829 -4.61965 0.122721
head 2.45079 -2.29849 -0.123565
lclavicle -2.29555e-15 -1.09742e-14 0
lhumerus -52.7235 -36.1691 120.937
lradius 61.4688 0 0
lwrist 18.7645 0 0
lhand 8.56182 13.3845 0
lfingers 7.12502 0 0
lthumb 33.8173 40.6451 0
rclavicle -2.29555e-15 -1.09742e-14 0
rhumerus -38.4723 -1.72031 -70.4231
rradius 83.5474 0 0
rwrist -0.0593236 0 0
rhand 27.9055 -15.3899 0
rfingers 7.12502 0 0
rthumb 50.4991 -759.355 0
242
root 6.03879 15.8155 -25.8087 9.56282 29.4871 -5.73631
lfemur -38.9189 31.5434 -7.70524
ltibia 51.8765 0 0
lfoot -14.1082 1.20787 0
ltoes 10.3811 0 0
rfemur -18.7042 -8.24423 3.39996
rtibia 47.3316 0 0
rfoot -8.33327 -5.83641 0
rtoes 28.4634 0 0
lowerback 1.44972 -2.10138 0.989333
upperback -0.768628 -2.73802 3.11272
thorax -1.47748 -1.3619 2.70676
lowerneck -11.2822 -3.91724 -0.690304
upperneck 1.58762 -5.12593 0.116024
head 2.47564 -2.55084 -0.13301
lclavicle -5.29911e-15 -9.68853e-15 0
lhumerus -52.6398 -35.898 120.919
lradius 61.5019 0 0
lwrist 18.8689 0 0
lhand 8.21071 13.1985 0
lfingers 7.12502 0 0
lthumb 33.4811 40.5134 0
rclavicle -5.29911e-15 -9.68853e-15 0
rhumerus -38.7921 -2.24984 -69.7207
rradius 79.2393 0 0
rwrist 4.56636 0 0
rhand 23.6874 -13.9852 0
rfingers 7.12502 0 0
rthumb 46.6291 -758.906 0
243
root 6.13994 15.8492 -25.7986 9.39168 31.3023 -5.47406
lfemur -38.6631 30.6236 -8.71507
ltibia 51.0326 0 0
lfoot -14.4574 0.306311 0
ltoes 14.9729 0 0
rfemur -18.0653 -6.71179 3.00254
rtibia 48.5942 0 0
rfoot -5.27701 -7.06715 0
rtoes 24.6978 0 0
lowerback 1.40883 -2.12381 0.784959
upperback -0.797962 -2.76979 3.15411
thorax -1.4705 -1.37571 2.86195
lowerneck -11.1756 -4.3135 -0.809245
upperneck 1.70879 -5.63834 0.116416
head 2.50069 -2.80599 -0.140965
lclavicle -8.28357e-15 -8.34796e-15 0
lhumerus -52.5562 -35.6359 120.883
lradius 61.526 0 0
lwrist 18.983 0 0
lhand 7.8999 13.0308 0
lfingers 7.12502 0 0
lthumb 33.1819 40.3823 0
rclavicle -8.28357e-15 -8.34796e-15 0
rhumerus -39.095 -2.80932 -68.9783
rradius 74.8645 0 0
rwrist 9.2078 0 0
rhand 19.3133 -12.6114 0
rfingers 7.12502 0 0
rthumb 42.6137 -758.295 0
